<svg width="77" height="81" viewBox="0 0 77 81" fill="none" xmlns="http://www.w3.org/2000/svg">
<g id="account">
<path id="Vector" d="M19.8658 6.96497C21.622 6.96497 23.3063 7.69887 24.5481 9.00522C25.79 10.3116 26.4876 12.0834 26.4876 13.9308C26.4876 15.7783 25.79 17.5501 24.5481 18.8564C23.3063 20.1628 21.622 20.8967 19.8658 20.8967C18.1096 20.8967 16.4253 20.1628 15.1834 18.8564C13.9416 17.5501 13.2439 15.7783 13.2439 13.9308C13.2439 12.0834 13.9416 10.3116 15.1834 9.00522C16.4253 7.69887 18.1096 6.96497 19.8658 6.96497ZM19.8658 24.3796C27.1829 24.3796 33.1095 27.4968 33.1095 31.3454V34.8284H6.62207V31.3454C6.62207 27.4968 12.5486 24.3796 19.8658 24.3796Z" fill="white"/>
</g>
</svg>
