<svg width="70" height="70" viewBox="0 0 70 70" fill="none" xmlns="http://www.w3.org/2000/svg">
<g id="cart-plus">
<path id="Vector" d="M16.5546 13.5439H19.5645V9.02899H24.0794V6.01905H19.5645V1.50415H16.5546V6.01905H12.0397V9.02899H16.5546M10.5347 27.0886C8.87922 27.0886 7.52475 28.4431 7.52475 30.0985C7.52475 31.754 8.87922 33.1085 10.5347 33.1085C12.1902 33.1085 13.5446 31.754 13.5446 30.0985C13.5446 28.4431 12.1902 27.0886 10.5347 27.0886ZM25.5844 27.0886C23.9289 27.0886 22.5744 28.4431 22.5744 30.0985C22.5744 31.754 23.9289 33.1085 25.5844 33.1085C27.2398 33.1085 28.5943 31.754 28.5943 30.0985C28.5943 28.4431 27.2398 27.0886 25.5844 27.0886ZM10.8357 22.2727V22.1222L12.1902 19.5638H23.3269C24.3804 19.5638 25.4339 18.9618 25.8854 18.0588L31.7547 7.52402L29.1963 6.01905L23.3269 16.5538H12.7921L6.47128 3.00912H1.50488V6.01905H4.51482L9.9327 17.4568L7.82575 21.0687C7.67525 21.5202 7.52475 21.9717 7.52475 22.5737C7.52475 24.2292 8.87922 25.5836 10.5347 25.5836H28.5943V22.5737H11.1367C10.9862 22.5737 10.8357 22.4232 10.8357 22.2727Z" fill="white"/>
</g>
</svg>
