<svg width="80" height="80" viewBox="0 0 80 80" fill="none" xmlns="http://www.w3.org/2000/svg">
<g id="magnify">
<path id="Vector" d="M16.3394 5.15906C19.3045 5.15906 22.1481 6.33692 24.2447 8.43353C26.3413 10.5301 27.5192 13.3738 27.5192 16.3388C27.5192 19.108 26.5044 21.6535 24.836 23.6143L25.3004 24.0786H26.6592L35.259 32.6785L32.6791 35.2584L24.0793 26.6586V25.2998L23.6149 24.8354C21.6541 26.5038 19.1086 27.5186 16.3394 27.5186C13.3744 27.5186 10.5308 26.3407 8.43414 24.2441C6.33753 22.1475 5.15967 19.3039 5.15967 16.3388C5.15967 13.3738 6.33753 10.5301 8.43414 8.43353C10.5308 6.33692 13.3744 5.15906 16.3394 5.15906ZM16.3394 8.59898C12.0395 8.59898 8.59959 12.0389 8.59959 16.3388C8.59959 20.6387 12.0395 24.0786 16.3394 24.0786C20.6393 24.0786 24.0793 20.6387 24.0793 16.3388C24.0793 12.0389 20.6393 8.59898 16.3394 8.59898Z" fill="white"/>
</g>
</svg>
